<svg width="17" height="19" viewBox="0 0 17 19" fill="none" xmlns="http://www.w3.org/2000/svg">
<path d="M5.5089 16.6104C5.79964 17.2789 6.27932 17.848 6.88901 18.2477C7.4987 18.6474 8.21186 18.8604 8.9409 18.8604C9.66993 18.8604 10.3831 18.6474 10.9928 18.2477C11.6025 17.848 12.0822 17.2789 12.3729 16.6104H5.5089ZM16.7349 10.2721L15.4329 5.9799C15.016 4.47866 14.1094 3.15973 12.8573 2.23252C11.6052 1.30532 10.0792 0.822984 8.52158 0.862105C6.96401 0.901225 5.46414 1.45956 4.26012 2.44845C3.05611 3.43734 2.21695 4.80012 1.8759 6.3204L0.864896 10.4731C0.730521 11.025 0.723241 11.6001 0.843604 12.1551C0.963967 12.7102 1.20883 13.2306 1.55971 13.6772C1.9106 14.1238 2.35833 14.4848 2.86913 14.7331C3.37993 14.9814 3.94046 15.1104 4.5084 15.1104H13.1461C13.7317 15.1104 14.3091 14.9733 14.8322 14.7101C15.3552 14.4468 15.8093 14.0648 16.1582 13.5945C16.507 13.1242 16.7409 12.5787 16.841 12.0018C16.9412 11.4249 16.9048 10.8325 16.7349 10.2721Z" fill="#313131"/>
</svg>
