<svg width="41" height="41" viewBox="0 0 41 41" fill="none" xmlns="http://www.w3.org/2000/svg">
<rect x="1.27637" y="0.600708" width="39" height="39" rx="19.5" stroke="#F6F8FA"/>
<path d="M16.5814 14.9626C16.3211 14.7023 15.899 14.7023 15.6386 14.9626C15.3783 15.223 15.3783 15.6451 15.6386 15.9054L19.8339 20.1008L15.6386 24.2961C15.3783 24.5564 15.3783 24.9785 15.6386 25.2389C15.899 25.4992 16.3211 25.4992 16.5814 25.2389L20.7767 21.0436L24.972 25.2388C25.2323 25.4991 25.6544 25.4991 25.9148 25.2388C26.1751 24.9784 26.1751 24.5563 25.9148 24.296L21.7196 20.1008L25.9148 15.9055C26.1751 15.6452 26.1751 15.2231 25.9148 14.9627C25.6544 14.7024 25.2323 14.7024 24.972 14.9627L20.7767 19.1579L16.5814 14.9626Z" fill="#4A5568"/>
</svg>
