<svg width="57" height="57" viewBox="0 0 57 57" fill="none" xmlns="http://www.w3.org/2000/svg">
<rect x="4.97266" y="4.27734" width="48" height="48" rx="24" fill="#FEE4E2"/>
<rect x="4.97266" y="4.27734" width="48" height="48" rx="24" stroke="#FEF3F2" stroke-width="8"/>
<g clip-path="url(#clip0_1693_33158)">
<path d="M29.4727 40.2773C31.846 40.2773 34.1661 39.5736 36.1395 38.255C38.1129 36.9364 39.651 35.0623 40.5592 32.8696C41.4675 30.6768 41.7051 28.264 41.2421 25.9363C40.7791 23.6085 39.6362 21.4703 37.9579 19.7921C36.2797 18.1138 34.1415 16.9709 31.8137 16.5079C29.486 16.0449 27.0732 16.2825 24.8805 17.1908C22.6877 18.099 20.8136 19.6371 19.495 21.6105C18.1764 23.5839 17.4727 25.904 17.4727 28.2773C17.4761 31.4589 18.7415 34.5091 20.9912 36.7588C23.2409 39.0085 26.2911 40.2739 29.4727 40.2773ZM29.4727 21.2773C29.7693 21.2773 30.0593 21.3653 30.306 21.5301C30.5527 21.695 30.7449 21.9292 30.8585 22.2033C30.972 22.4774 31.0017 22.779 30.9438 23.07C30.886 23.361 30.7431 23.6282 30.5333 23.838C30.3235 24.0478 30.0563 24.1906 29.7653 24.2485C29.4743 24.3064 29.1727 24.2767 28.8986 24.1632C28.6245 24.0496 28.3903 23.8574 28.2255 23.6107C28.0606 23.364 27.9727 23.074 27.9727 22.7773C27.9727 22.3795 28.1307 21.998 28.412 21.7167C28.6933 21.4354 29.0748 21.2773 29.4727 21.2773ZM28.4727 26.2773H29.4727C30.0031 26.2773 30.5118 26.4881 30.8869 26.8631C31.2619 27.2382 31.4727 27.7469 31.4727 28.2773V34.2773C31.4727 34.5426 31.3673 34.7969 31.1798 34.9845C30.9922 35.172 30.7379 35.2773 30.4727 35.2773C30.2074 35.2773 29.9531 35.172 29.7656 34.9845C29.578 34.7969 29.4727 34.5426 29.4727 34.2773V28.2773H28.4727C28.2074 28.2773 27.9531 28.172 27.7656 27.9845C27.578 27.7969 27.4727 27.5426 27.4727 27.2773C27.4727 27.0121 27.578 26.7578 27.7656 26.5702C27.9531 26.3827 28.2074 26.2773 28.4727 26.2773Z" fill="#D74120"/>
</g>
<defs>
<clipPath id="clip0_1693_33158">
<rect width="24" height="24" fill="white" transform="translate(17.4727 16.2773)"/>
</clipPath>
</defs>
</svg>
