<svg width="21" height="21" viewBox="0 0 21 21" fill="none" xmlns="http://www.w3.org/2000/svg">
<path d="M17.2176 2.41563C16.1091 1.49319 14.8215 0.810341 13.4361 0.41011C12.0506 0.00987929 10.5973 -0.0990581 9.16767 0.0901626C6.52292 0.433749 4.10806 1.77098 2.41342 3.83034C0.718787 5.8897 -0.128595 8.5168 0.0433397 11.1782C0.215275 13.8397 1.39364 16.3359 3.33916 18.1601C5.28469 19.9843 7.85153 20.9997 10.5185 21.0001H16.627C17.7868 20.9987 18.8986 20.5374 19.7187 19.7173C20.5388 18.8973 21.0001 17.7854 21.0015 16.6257V9.84173C20.9089 8.41166 20.5256 7.01552 19.875 5.73866C19.2243 4.46181 18.3201 3.33108 17.2176 2.41563ZM7.00319 6.12693H10.5028C10.7348 6.12693 10.9573 6.2191 11.1214 6.38318C11.2855 6.54725 11.3777 6.76979 11.3777 7.00182C11.3777 7.23386 11.2855 7.45639 11.1214 7.62046C10.9573 7.78454 10.7348 7.87672 10.5028 7.87672H7.00319C6.77115 7.87672 6.54862 7.78454 6.38454 7.62046C6.22047 7.45639 6.12829 7.23386 6.12829 7.00182C6.12829 6.76979 6.22047 6.54725 6.38454 6.38318C6.54862 6.2191 6.77115 6.12693 7.00319 6.12693ZM14.0023 14.8759H7.00319C6.77115 14.8759 6.54862 14.7837 6.38454 14.6196C6.22047 14.4555 6.12829 14.233 6.12829 14.001C6.12829 13.7689 6.22047 13.5464 6.38454 13.3823C6.54862 13.2183 6.77115 13.1261 7.00319 13.1261H14.0023C14.2344 13.1261 14.4569 13.2183 14.621 13.3823C14.7851 13.5464 14.8772 13.7689 14.8772 14.001C14.8772 14.233 14.7851 14.4555 14.621 14.6196C14.4569 14.7837 14.2344 14.8759 14.0023 14.8759ZM14.0023 11.3763H7.00319C6.77115 11.3763 6.54862 11.2841 6.38454 11.12C6.22047 10.956 6.12829 10.7334 6.12829 10.5014C6.12829 10.2694 6.22047 10.0468 6.38454 9.88275C6.54862 9.71868 6.77115 9.6265 7.00319 9.6265H14.0023C14.2344 9.6265 14.4569 9.71868 14.621 9.88275C14.7851 10.0468 14.8772 10.2694 14.8772 10.5014C14.8772 10.7334 14.7851 10.956 14.621 11.12C14.4569 11.2841 14.2344 11.3763 14.0023 11.3763Z" fill="#4E6199"/>
</svg>
