<svg width="23" height="22" viewBox="0 0 23 22" fill="none" xmlns="http://www.w3.org/2000/svg">
<path d="M21.8607 20.3317H20.819V8.59209C20.819 7.94625 20.5273 7.34209 20.0169 6.94625L18.7357 5.94625L18.7148 3.39417C18.7148 2.82125 18.2461 2.36292 17.6732 2.36292H14.1211L12.7253 1.27959C11.9753 0.685837 10.9128 0.685837 10.1628 1.27959L2.87109 6.94625C2.36068 7.34209 2.06901 7.94625 2.06901 8.58167L2.01693 20.3317H1.02734C0.60026 20.3317 0.246094 20.6859 0.246094 21.113C0.246094 21.5401 0.60026 21.8942 1.02734 21.8942H21.8607C22.2878 21.8942 22.6419 21.5401 22.6419 21.113C22.6419 20.6859 22.2878 20.3317 21.8607 20.3317ZM5.71484 11.4775V9.91495C5.71484 9.34203 6.18359 8.87328 6.75651 8.87328H8.83984C9.41276 8.87328 9.88151 9.34203 9.88151 9.91495V11.4775C9.88151 12.0504 9.41276 12.5191 8.83984 12.5191H6.75651C6.18359 12.5191 5.71484 12.0504 5.71484 11.4775ZM14.0482 20.3317H8.83984V17.467C8.83984 16.6025 9.53776 15.9045 10.4023 15.9045H12.4857C13.3503 15.9045 14.0482 16.6025 14.0482 17.467V20.3317ZM17.1732 11.4775C17.1732 12.0504 16.7044 12.5191 16.1315 12.5191H14.0482C13.4753 12.5191 13.0065 12.0504 13.0065 11.4775V9.91495C13.0065 9.34203 13.4753 8.87328 14.0482 8.87328H16.1315C16.7044 8.87328 17.1732 9.34203 17.1732 9.91495V11.4775Z" fill="#408F8C"/>
</svg>
