<svg width="23" height="23" viewBox="0 0 23 23" fill="none" xmlns="http://www.w3.org/2000/svg">
<path d="M20.0212 10.5069V18.0197C20.0212 18.5394 19.8361 18.9843 19.466 19.3545C19.0959 19.7246 18.651 19.9097 18.1312 19.9097H4.90121C4.38146 19.9097 3.93652 19.7246 3.5664 19.3545C3.19627 18.9843 3.01121 18.5394 3.01121 18.0197V10.5069C2.64896 10.1762 2.3694 9.75091 2.17252 9.23116C1.97565 8.71141 1.97171 8.14441 2.16071 7.53016L3.15296 4.31716C3.27896 3.90766 3.5034 3.56903 3.82627 3.30128C4.14915 3.03353 4.52321 2.89966 4.94846 2.89966H18.084C18.5092 2.89966 18.8793 3.0296 19.1943 3.28947C19.5093 3.54935 19.7377 3.89191 19.8795 4.31716L20.8717 7.53016C21.0607 8.14441 21.0568 8.70353 20.8599 9.20753C20.663 9.71153 20.3835 10.1447 20.0212 10.5069ZM13.5952 9.51466C14.0205 9.51466 14.3433 9.36897 14.5638 9.0776C14.7843 8.78622 14.871 8.45941 14.8237 8.09716L14.304 4.78966H12.4612V8.28616C12.4612 8.61691 12.5715 8.90435 12.792 9.14847C13.0125 9.3926 13.2802 9.51466 13.5952 9.51466ZM9.34271 9.51466C9.70496 9.51466 10.0003 9.3926 10.2286 9.14847C10.457 8.90435 10.5712 8.61691 10.5712 8.28616V4.78966H8.72846L8.20871 8.09716C8.14571 8.47516 8.2284 8.80591 8.45677 9.08941C8.68515 9.37291 8.98046 9.51466 9.34271 9.51466ZM5.13746 9.51466C5.42096 9.51466 5.66902 9.41228 5.88164 9.20753C6.09427 9.00278 6.22421 8.74291 6.27146 8.42791L6.79121 4.78966H4.94846L4.00346 7.95541C3.90896 8.27041 3.96015 8.60903 4.15702 8.97128C4.3539 9.33353 4.68071 9.51466 5.13746 9.51466ZM17.895 9.51466C18.3517 9.51466 18.6825 9.33353 18.8872 8.97128C19.092 8.60903 19.1392 8.27041 19.029 7.95541L18.0367 4.78966H16.2412L16.761 8.42791C16.8082 8.74291 16.9381 9.00278 17.1508 9.20753C17.3634 9.41228 17.6115 9.51466 17.895 9.51466Z" fill="#4E6199"/>
</svg>
