<svg width="17" height="17" viewBox="0 0 17 17" fill="none" xmlns="http://www.w3.org/2000/svg">
<path d="M0.751953 6.12182V5.45515C0.751953 3.61715 2.24729 2.12182 4.08529 2.12182H4.75195V1.45515C4.75195 1.27834 4.82219 1.10877 4.94722 0.983745C5.07224 0.858721 5.24181 0.788483 5.41862 0.788483C5.59543 0.788483 5.765 0.858721 5.89002 0.983745C6.01505 1.10877 6.08529 1.27834 6.08529 1.45515V2.12182H11.4186V1.45515C11.4186 1.27834 11.4889 1.10877 11.6139 0.983745C11.7389 0.858721 11.9085 0.788483 12.0853 0.788483C12.2621 0.788483 12.4317 0.858721 12.5567 0.983745C12.6817 1.10877 12.752 1.27834 12.752 1.45515V2.12182H13.4186C15.2566 2.12182 16.752 3.61715 16.752 5.45515V6.12182H0.751953ZM16.752 7.45515V13.4551C16.752 15.2931 15.2566 16.7885 13.4186 16.7885H4.08529C2.24729 16.7885 0.751953 15.2931 0.751953 13.4551V7.45515H16.752ZM8.75195 13.4551C8.75195 13.2783 8.68172 13.1088 8.55669 12.9837C8.43167 12.8587 8.2621 12.7885 8.08529 12.7885H4.75195C4.57514 12.7885 4.40557 12.8587 4.28055 12.9837C4.15552 13.1088 4.08529 13.2783 4.08529 13.4551C4.08529 13.632 4.15552 13.8015 4.28055 13.9266C4.40557 14.0516 4.57514 14.1218 4.75195 14.1218H8.08529C8.2621 14.1218 8.43167 14.0516 8.55669 13.9266C8.68172 13.8015 8.75195 13.632 8.75195 13.4551ZM13.4186 10.7885C13.4186 10.6117 13.3484 10.4421 13.2234 10.3171C13.0983 10.1921 12.9288 10.1218 12.752 10.1218H4.75195C4.57514 10.1218 4.40557 10.1921 4.28055 10.3171C4.15552 10.4421 4.08529 10.6117 4.08529 10.7885C4.08529 10.9653 4.15552 11.1349 4.28055 11.2599C4.40557 11.3849 4.57514 11.4551 4.75195 11.4551H12.752C12.9288 11.4551 13.0983 11.3849 13.2234 11.2599C13.3484 11.1349 13.4186 10.9653 13.4186 10.7885Z" fill="#313131"/>
</svg>
