<svg width="39" height="39" viewBox="0 0 39 39" fill="none" xmlns="http://www.w3.org/2000/svg">
<g filter="url(#filter0_d_194_20890)">
<circle cx="19.9727" cy="15.0262" r="15" fill="#F1F1F1"/>
</g>
<g clip-path="url(#clip0_194_20890)">
<path d="M23.7862 9.02618L22.8442 7.80485C22.6566 7.56339 22.4164 7.3678 22.142 7.23289C21.8675 7.09798 21.566 7.02729 21.2602 7.02618H18.6842C18.3784 7.02729 18.0769 7.09798 17.8024 7.23289C17.528 7.3678 17.2879 7.56339 17.1002 7.80485L16.1582 9.02618H23.7862Z" fill="#408F8C"/>
<path d="M19.9733 19.0262C21.4461 19.0262 22.64 17.8323 22.64 16.3595C22.64 14.8868 21.4461 13.6929 19.9733 13.6929C18.5005 13.6929 17.3066 14.8868 17.3066 16.3595C17.3066 17.8323 18.5005 19.0262 19.9733 19.0262Z" fill="#408F8C"/>
<path d="M24.6393 10.3595H15.306C14.4223 10.3606 13.575 10.7121 12.9501 11.337C12.3252 11.9619 11.9737 12.8091 11.9727 13.6928L11.9727 19.6928C11.9737 20.5766 12.3252 21.4238 12.9501 22.0487C13.575 22.6736 14.4223 23.0251 15.306 23.0262H24.6393C25.5231 23.0251 26.3703 22.6736 26.9952 22.0487C27.6201 21.4238 27.9716 20.5766 27.9727 19.6928V13.6928C27.9716 12.8091 27.6201 11.9619 26.9952 11.337C26.3703 10.7121 25.5231 10.3606 24.6393 10.3595ZM19.9727 20.3595C19.1815 20.3595 18.4082 20.1249 17.7504 19.6854C17.0926 19.2458 16.5799 18.6211 16.2771 17.8902C15.9744 17.1593 15.8952 16.3551 16.0495 15.5791C16.2039 14.8032 16.5848 14.0905 17.1442 13.5311C17.7036 12.9717 18.4164 12.5907 19.1923 12.4364C19.9682 12.282 20.7725 12.3612 21.5034 12.664C22.2343 12.9667 22.859 13.4794 23.2985 14.1372C23.7381 14.795 23.9727 15.5684 23.9727 16.3595C23.9716 17.42 23.5498 18.4368 22.7999 19.1868C22.05 19.9367 21.0332 20.3584 19.9727 20.3595Z" fill="#408F8C"/>
</g>
<defs>
<filter id="filter0_d_194_20890" x="0.972656" y="0.0261841" width="38" height="38" filterUnits="userSpaceOnUse" color-interpolation-filters="sRGB">
<feFlood flood-opacity="0" result="BackgroundImageFix"/>
<feColorMatrix in="SourceAlpha" type="matrix" values="0 0 0 0 0 0 0 0 0 0 0 0 0 0 0 0 0 0 127 0" result="hardAlpha"/>
<feOffset dy="4"/>
<feGaussianBlur stdDeviation="2"/>
<feComposite in2="hardAlpha" operator="out"/>
<feColorMatrix type="matrix" values="0 0 0 0 0 0 0 0 0 0 0 0 0 0 0 0 0 0 0.25 0"/>
<feBlend mode="normal" in2="BackgroundImageFix" result="effect1_dropShadow_194_20890"/>
<feBlend mode="normal" in="SourceGraphic" in2="effect1_dropShadow_194_20890" result="shape"/>
</filter>
<clipPath id="clip0_194_20890">
<rect width="16" height="16" fill="white" transform="translate(11.9727 7.02618)"/>
</clipPath>
</defs>
</svg>
