<svg width="41" height="41" viewBox="0 0 41 41" fill="none" xmlns="http://www.w3.org/2000/svg">
<g clip-path="url(#clip0_300_6981)">
<path d="M33.1495 4.85639C31.0379 3.09914 28.5851 1.79832 25.9458 1.03588C23.3066 0.273447 20.538 0.0659221 17.8145 0.426386C12.7763 1.08092 8.17602 3.62834 4.94774 7.5514C1.71947 11.4745 0.105213 16.4791 0.432748 21.5491C0.760282 26.6191 3.00506 31.3744 6.71127 34.8495C10.4175 38.3246 15.3073 40.2589 20.3879 40.2597H32.0245C34.2339 40.2571 36.3519 39.3783 37.9142 37.816C39.4764 36.2538 40.3552 34.1357 40.3579 31.9264V19.0031C40.1815 16.2788 39.4512 13.6191 38.2118 11.1867C36.9724 8.75434 35.2499 6.60032 33.1495 4.85639ZM13.6912 11.9264H20.3579C20.7999 11.9264 21.2238 12.102 21.5364 12.4145C21.8489 12.7271 22.0245 13.151 22.0245 13.5931C22.0245 14.0351 21.8489 14.459 21.5364 14.7716C21.2238 15.0841 20.7999 15.2597 20.3579 15.2597H13.6912C13.2492 15.2597 12.8253 15.0841 12.5127 14.7716C12.2001 14.459 12.0245 14.0351 12.0245 13.5931C12.0245 13.151 12.2001 12.7271 12.5127 12.4145C12.8253 12.102 13.2492 11.9264 13.6912 11.9264ZM27.0245 28.5931H13.6912C13.2492 28.5931 12.8253 28.4175 12.5127 28.1049C12.2001 27.7923 12.0245 27.3684 12.0245 26.9264C12.0245 26.4844 12.2001 26.0604 12.5127 25.7479C12.8253 25.4353 13.2492 25.2597 13.6912 25.2597H27.0245C27.4666 25.2597 27.8905 25.4353 28.2031 25.7479C28.5156 26.0604 28.6912 26.4844 28.6912 26.9264C28.6912 27.3684 28.5156 27.7923 28.2031 28.1049C27.8905 28.4175 27.4666 28.5931 27.0245 28.5931ZM27.0245 21.9264H13.6912C13.2492 21.9264 12.8253 21.7508 12.5127 21.4382C12.2001 21.1257 12.0245 20.7017 12.0245 20.2597C12.0245 19.8177 12.2001 19.3938 12.5127 19.0812C12.8253 18.7686 13.2492 18.5931 13.6912 18.5931H27.0245C27.4666 18.5931 27.8905 18.7686 28.2031 19.0812C28.5156 19.3938 28.6912 19.8177 28.6912 20.2597C28.6912 20.7017 28.5156 21.1257 28.2031 21.4382C27.8905 21.7508 27.4666 21.9264 27.0245 21.9264Z" fill="white"/>
</g>
<defs>
<clipPath id="clip0_300_6981">
<rect width="40" height="40" fill="white" transform="translate(0.35791 0.259766)"/>
</clipPath>
</defs>
</svg>
