<svg width="15" height="17" viewBox="0 0 15 17" fill="none" xmlns="http://www.w3.org/2000/svg">
<path d="M13.491 3.52047H11.4497C11.1346 1.98853 9.78699 0.88845 8.22298 0.886475H6.90597C5.34196 0.88845 3.99436 1.98853 3.67933 3.52047H1.63798C1.27431 3.52047 0.979492 3.81528 0.979492 4.17896C0.979492 4.54264 1.27431 4.83748 1.63798 4.83748H2.29647V13.398C2.29867 15.2155 3.7715 16.6883 5.58899 16.6905H9.54C11.3575 16.6883 12.8303 15.2155 12.8325 13.398V4.83748H13.491C13.8547 4.83748 14.1495 4.54267 14.1495 4.17899C14.1495 3.81531 13.8547 3.52047 13.491 3.52047ZM6.906 12.081C6.906 12.4447 6.61119 12.7395 6.24751 12.7395C5.8838 12.7395 5.58899 12.4447 5.58899 12.081V8.13C5.58899 7.76632 5.8838 7.4715 6.24748 7.4715C6.61116 7.4715 6.90597 7.76632 6.90597 8.13V12.081H6.906ZM9.54 12.081C9.54 12.4447 9.24518 12.7395 8.8815 12.7395C8.51783 12.7395 8.22301 12.4447 8.22301 12.081V8.13C8.22301 7.76632 8.51783 7.4715 8.8815 7.4715C9.24518 7.4715 9.54 7.76632 9.54 8.13V12.081ZM5.0431 3.52047C5.32319 2.73178 6.06907 2.20447 6.906 2.20346H8.22301C9.05995 2.20447 9.80582 2.73178 10.0859 3.52047H5.0431Z" fill="#D74120"/>
</svg>
