<svg width="19" height="23" viewBox="0 0 19 23" fill="none" xmlns="http://www.w3.org/2000/svg">
<path d="M11.1021 7.03874V1.04374C11.95 1.36396 12.7202 1.86077 13.3616 2.50124L16.5553 5.69674C17.1965 6.33738 17.6937 7.10739 18.0137 7.9554H12.0187C11.5127 7.9554 11.1021 7.54382 11.1021 7.03874ZM18.4354 10.2333V18.0387C18.4354 20.566 16.3793 22.6221 13.8521 22.6221H4.68538C2.15813 22.6221 0.102051 20.566 0.102051 18.0387V5.2054C0.102051 2.67815 2.15813 0.62207 4.68538 0.62207V2.4554C4.68538 2.69852 4.78196 2.93168 4.95387 3.10359C5.12578 3.27549 5.35894 3.37207 5.60205 3.37207C5.84517 3.37207 6.07832 3.27549 6.25023 3.10359C6.42214 2.93168 6.51872 2.69852 6.51872 2.4554V0.62207H8.82413C8.97355 0.62207 9.12113 0.633987 9.26872 0.64407V7.03874C9.26872 8.5549 10.5026 9.78874 12.0187 9.78874H18.4134C18.4235 9.93632 18.4354 10.0839 18.4354 10.2333ZM4.68538 6.12207C4.68538 6.36519 4.78196 6.59834 4.95387 6.77025C5.12578 6.94216 5.35894 7.03874 5.60205 7.03874C5.84517 7.03874 6.07832 6.94216 6.25023 6.77025C6.42214 6.59834 6.51872 6.36519 6.51872 6.12207V5.2054C6.51872 4.96229 6.42214 4.72913 6.25023 4.55722C6.07832 4.38531 5.84517 4.28874 5.60205 4.28874C5.35894 4.28874 5.12578 4.38531 4.95387 4.55722C4.78196 4.72913 4.68538 4.96229 4.68538 5.2054V6.12207ZM4.68538 9.78874C4.68538 10.0319 4.78196 10.265 4.95387 10.4369C5.12578 10.6088 5.35894 10.7054 5.60205 10.7054C5.84517 10.7054 6.07832 10.6088 6.25023 10.4369C6.42214 10.265 6.51872 10.0319 6.51872 9.78874V8.87207C6.51872 8.62895 6.42214 8.3958 6.25023 8.22389C6.07832 8.05198 5.84517 7.9554 5.60205 7.9554C5.35894 7.9554 5.12578 8.05198 4.95387 8.22389C4.78196 8.3958 4.68538 8.62895 4.68538 8.87207V9.78874ZM7.47572 14.813L6.7818 12.4993C6.70604 12.2453 6.5503 12.0225 6.33774 11.864C6.12518 11.7056 5.86716 11.62 5.60205 11.62C5.33694 11.62 5.07892 11.7056 4.86636 11.864C4.6538 12.0225 4.49806 12.2453 4.4223 12.4993L3.72838 14.813C3.67995 14.9745 3.66993 15.1451 3.69914 15.3111C3.72834 15.4772 3.79596 15.6341 3.89659 15.7694C3.99722 15.9046 4.12808 16.0145 4.27872 16.0902C4.42936 16.1659 4.59562 16.2054 4.76422 16.2054H6.4408C6.6094 16.2054 6.77565 16.1659 6.9263 16.0902C7.07694 16.0145 7.2078 15.9046 7.30843 15.7694C7.40906 15.6341 7.47668 15.4772 7.50588 15.3111C7.53509 15.1451 7.52507 14.9745 7.47663 14.813H7.47572Z" fill="#4E6199"/>
</svg>
