<svg width="15" height="15" viewBox="0 0 15 15" fill="none" xmlns="http://www.w3.org/2000/svg">
<path d="M4.31502 4.21326C4.26009 4.15833 4.21652 4.09311 4.18679 4.02134C4.15706 3.94956 4.14176 3.87264 4.14176 3.79495C4.14176 3.71726 4.15706 3.64034 4.18679 3.56856C4.21652 3.49679 4.26009 3.43157 4.31502 3.37664C4.36996 3.32171 4.43517 3.27813 4.50695 3.2484C4.57872 3.21867 4.65565 3.20337 4.73333 3.20337C4.81102 3.20337 4.88795 3.21867 4.95972 3.2484C5.03149 3.27813 5.09671 3.32171 5.15164 3.37664L6.50833 4.73333V0.591667C6.50833 0.434747 6.57067 0.284254 6.68163 0.173295C6.79259 0.0623361 6.94308 0 7.1 0C7.25692 0 7.40741 0.0623361 7.51837 0.173295C7.62933 0.284254 7.69167 0.434747 7.69167 0.591667V4.73333L9.04836 3.37664C9.1593 3.2657 9.30977 3.20337 9.46667 3.20337C9.62356 3.20337 9.77403 3.2657 9.88498 3.37664C9.99592 3.48758 10.0582 3.63805 10.0582 3.79495C10.0582 3.95185 9.99592 4.10232 9.88498 4.21326L7.93662 6.16162C7.71612 6.3822 7.41721 6.50644 7.10532 6.50715L7.1 6.50833L7.09467 6.50715C6.78279 6.50644 6.48388 6.3822 6.26338 6.16162L4.31502 4.21326ZM12.425 7.1H10.65C9.99739 7.1 9.46667 7.63072 9.46667 8.28333C9.46667 8.93594 8.93594 9.46667 8.28333 9.46667H5.91667C5.26406 9.46667 4.73333 8.93594 4.73333 8.28333C4.73333 7.63072 4.20261 7.1 3.55 7.1H1.775C0.796383 7.1 0 7.89638 0 8.875V11.2417C0 12.8729 1.32711 14.2 2.95833 14.2H11.2417C12.8729 14.2 14.2 12.8729 14.2 11.2417V8.875C14.2 7.89638 13.4036 7.1 12.425 7.1Z" fill="#4E6199"/>
</svg>
