<svg width="16" height="15" viewBox="0 0 16 15" fill="none" xmlns="http://www.w3.org/2000/svg">
<path d="M12.062 10.65H14.7481C14.5416 11.1975 14.2207 11.6947 13.8068 12.1085L12.9288 12.9871C12.5148 13.4005 12.0176 13.7211 11.4703 13.9278V11.2417C11.4703 11.0847 11.5326 10.9343 11.6436 10.8233C11.7546 10.7123 11.9051 10.65 12.062 10.65ZM15.0203 2.95833V9.17971C15.0203 9.27615 15.0126 9.37141 15.0061 9.46667H12.062C11.5912 9.46667 11.1397 9.65368 10.8069 9.98655C10.474 10.3194 10.287 10.7709 10.287 11.2417V14.1858C10.1917 14.1923 10.0965 14.2 10 14.2H3.77865C2.99434 14.1991 2.24242 13.8871 1.68783 13.3325C1.13323 12.7779 0.821252 12.026 0.820312 11.2417L0.820313 2.95833C0.821252 2.17402 1.13323 1.42211 1.68783 0.867514C2.24242 0.312922 2.99434 0.000939482 3.77865 0L12.062 0C12.8463 0.000939482 13.5982 0.312922 14.1528 0.867514C14.7074 1.42211 15.0194 2.17402 15.0203 2.95833Z" fill="#D74120"/>
</svg>
