<svg width="14" height="14" viewBox="0 0 14 14" fill="none" xmlns="http://www.w3.org/2000/svg">
<path d="M6.88588 7.28766C6.73627 7.13795 6.55862 7.01919 6.36309 6.93816C6.16757 6.85714 5.95799 6.81543 5.74633 6.81543C5.53468 6.81543 5.3251 6.85714 5.12957 6.93816C4.93405 7.01919 4.7564 7.13795 4.60679 7.28766L0.933594 10.9609C0.983247 11.6343 1.28529 12.2642 1.77933 12.7246C2.27336 13.185 2.92298 13.4419 3.59827 13.444H11.1165C11.6426 13.4439 12.157 13.2883 12.5949 12.9967L6.88588 7.28766Z" fill="#313131"/>
<path d="M10.5804 4.85217C11.1736 4.85217 11.6544 4.37131 11.6544 3.77813C11.6544 3.18496 11.1736 2.7041 10.5804 2.7041C9.98721 2.7041 9.50635 3.18496 9.50635 3.77813C9.50635 4.37131 9.98721 4.85217 10.5804 4.85217Z" fill="#313131"/>
<path d="M11.1169 0.555664H3.59866C2.88679 0.556517 2.20432 0.839682 1.70096 1.34305C1.19759 1.84641 0.914427 2.52888 0.913574 3.24075L0.913574 9.46262L3.84783 6.52836C4.09717 6.27895 4.39321 6.08111 4.71902 5.94613C5.04484 5.81114 5.39405 5.74167 5.74672 5.74167C6.09939 5.74167 6.44861 5.81114 6.77442 5.94613C7.10024 6.08111 7.39627 6.27895 7.64561 6.52836L13.3546 12.2374C13.6462 11.7995 13.8019 11.2851 13.802 10.759V3.24075C13.8011 2.52888 13.5179 1.84641 13.0146 1.34305C12.5112 0.839682 11.8288 0.556517 11.1169 0.555664ZM10.5799 5.92583C10.155 5.92583 9.73971 5.79985 9.38647 5.56381C9.03322 5.32778 8.7579 4.9923 8.59531 4.59979C8.43273 4.20728 8.39019 3.77538 8.47308 3.3587C8.55596 2.94201 8.76054 2.55926 9.06096 2.25885C9.36137 1.95844 9.74412 1.75385 10.1608 1.67097C10.5775 1.58809 11.0094 1.63063 11.4019 1.79321C11.7944 1.95579 12.1299 2.23111 12.3659 2.58436C12.602 2.93761 12.7279 3.35292 12.7279 3.77776C12.7279 4.34746 12.5016 4.89383 12.0988 5.29667C11.6959 5.69951 11.1496 5.92583 10.5799 5.92583Z" fill="#313131"/>
</svg>
