<svg width="57" height="57" viewBox="0 0 57 57" fill="none" xmlns="http://www.w3.org/2000/svg">
<rect x="4.98438" y="4.98438" width="48" height="48" rx="24" fill="#7DB94B" fill-opacity="0.3"/>
<rect x="4.98438" y="4.98438" width="48" height="48" rx="24" stroke="#7DB94B" stroke-opacity="0.1" stroke-width="8"/>
<g clip-path="url(#clip0_450_12176)">
<path d="M28.9844 16.9385C22.3674 16.9385 16.9844 22.3215 16.9844 28.9385C16.9844 35.5555 22.3674 40.9385 28.9844 40.9385C35.6014 40.9385 40.9844 35.5555 40.9844 28.9385C40.9844 22.3215 35.6014 16.9385 28.9844 16.9385ZM28.8934 32.3575C28.5177 32.73 28.0099 32.9386 27.4808 32.9376C26.9518 32.9367 26.4447 32.7263 26.0704 32.3525L23.2884 29.6565L24.6814 28.2195L27.4744 30.9265L33.2834 25.2255L34.6874 26.6505L28.8934 32.3575Z" fill="#7DB94B"/>
</g>
<defs>
<clipPath id="clip0_450_12176">
<rect width="24" height="24" fill="white" transform="translate(16.9844 16.9385)"/>
</clipPath>
</defs>
</svg>
