<svg width="20" height="21" viewBox="0 0 20 21" fill="none" xmlns="http://www.w3.org/2000/svg">
<path d="M10.6277 1.82175C9.34192 1.73179 8.05183 1.91906 6.84472 2.37089C5.6376 2.82272 4.54162 3.52857 3.63094 4.44067C2.72025 5.35278 2.01612 6.44986 1.56617 7.65768C1.11623 8.8655 0.930971 10.1559 1.02294 11.4415C1.35367 16.206 5.56245 19.7998 10.8129 19.7998H15.2504C16.2446 19.7986 17.1977 19.4032 17.9006 18.7002C18.6036 17.9972 18.999 17.0441 19.0002 16.05V11.0553C19.0282 8.74347 18.1806 6.50668 16.6276 4.79398C15.0746 3.08127 12.9312 2.01947 10.6277 1.82175ZM10.0007 5.55056C10.2991 5.55056 10.5852 5.66908 10.7962 5.88004C11.0071 6.09101 11.1257 6.37715 11.1257 6.6755C11.1257 6.97385 11.0071 7.25998 10.7962 7.47095C10.5852 7.68192 10.2991 7.80044 10.0007 7.80044C9.70236 7.80044 9.41623 7.68192 9.20526 7.47095C8.99429 7.25998 8.87577 6.97385 8.87577 6.6755C8.87577 6.37715 8.99429 6.09101 9.20526 5.88004C9.41623 5.66908 9.70236 5.55056 10.0007 5.55056ZM11.5006 15.3C11.5006 15.4989 11.4216 15.6897 11.281 15.8303C11.1403 15.971 10.9496 16.05 10.7507 16.05C10.5518 16.05 10.361 15.971 10.2204 15.8303C10.0797 15.6897 10.0007 15.4989 10.0007 15.3V10.8003H9.25076C9.05185 10.8003 8.8611 10.7213 8.72045 10.5806C8.57981 10.44 8.50079 10.2492 8.50079 10.0503C8.50079 9.85142 8.57981 9.66066 8.72045 9.52002C8.8611 9.37937 9.05185 9.30036 9.25076 9.30036H10.0007C10.3985 9.30036 10.78 9.45839 11.0613 9.73968C11.3426 10.021 11.5006 10.4025 11.5006 10.8003V15.3Z" fill="#D74120"/>
</svg>
