<svg width="21" height="21" viewBox="0 0 21 21" fill="none" xmlns="http://www.w3.org/2000/svg">
<path d="M7.06116 12.1035C7.36534 11.7844 7.66035 11.4244 7.88869 11.0402C8.24787 10.4343 7.77202 9.66678 7.07033 9.66678H3.9527C3.25017 9.66678 2.77515 10.4343 3.13433 11.0402C3.36184 11.4244 3.65768 11.7852 3.96186 12.1035C1.99011 13.0086 0.511719 15.4879 0.511719 17.5929C0.513926 18.3649 0.822256 19.1045 1.36907 19.6495C1.91588 20.1944 2.65652 20.5002 3.42851 20.4997H7.59535C9.20375 20.4997 10.5121 19.1955 10.5121 17.5929C10.5121 15.487 9.03207 13.0086 7.06116 12.1035ZM9.67793 5.49994H18.0116V17.1671C18.0116 18.0512 17.6604 18.8991 17.0353 19.5242C16.4101 20.1494 15.5622 20.5006 14.6781 20.5006H11.1305C11.8083 19.6836 12.1789 18.6553 12.178 17.5938C12.178 15.4295 11.0705 13.1636 9.42626 11.6969C9.60737 11.3244 9.69412 10.9131 9.67886 10.4992C9.6636 10.0853 9.5468 9.68155 9.33875 9.32343C9.11061 8.92268 8.7807 8.58927 8.38238 8.3569C7.98407 8.12452 7.53147 8.00142 7.07033 8.00005H3.95353C3.62685 8.00005 3.3085 8.06255 3.01182 8.17755V2.70233C3.01099 1.61228 3.79519 0.618905 4.8794 0.510567C5.1696 0.480458 5.46289 0.511636 5.74028 0.602082C6.01766 0.692527 6.27296 0.840225 6.48963 1.03561C6.70631 1.23099 6.87953 1.46971 6.99808 1.73629C7.11663 2.00288 7.17787 2.2914 7.17783 2.58315V2.99984C7.17783 3.66291 7.44123 4.29882 7.91009 4.76768C8.37895 5.23654 9.01486 5.49994 9.67793 5.49994ZM20.5117 2.99984C20.5117 3.22086 20.4239 3.43283 20.2676 3.58912C20.1113 3.7454 19.8994 3.83321 19.6784 3.83321H9.67793C9.45691 3.83321 9.24494 3.7454 9.08865 3.58912C8.93237 3.43283 8.84457 3.22086 8.84457 2.99984V2.58315C8.84457 1.81312 8.61122 1.09643 8.21121 0.499734H18.0116C18.6747 0.499734 19.3106 0.763137 19.7795 1.232C20.2483 1.70086 20.5117 2.33677 20.5117 2.99984Z" fill="#4E6199"/>
</svg>
