<svg width="14" height="14" viewBox="0 0 14 14" fill="none" xmlns="http://www.w3.org/2000/svg">
<path d="M10.062 0.540025C10.8078 0.538265 11.5373 0.757993 12.1581 1.17136C12.7789 1.58472 13.263 2.1731 13.549 2.86191C13.835 3.55072 13.9101 4.30894 13.7646 5.04045C13.6192 5.77195 13.2598 6.44381 12.7321 6.97084L7.02921 12.6657C6.52445 13.1716 5.83939 13.4562 5.12475 13.457C4.4101 13.4578 3.7244 13.1747 3.2185 12.67C2.7126 12.1652 2.42793 11.4801 2.42712 10.7655C2.42632 10.0508 2.70943 9.36515 3.2142 8.85924L8.91762 3.16497C9.22608 2.87099 9.63585 2.70699 10.062 2.70699C10.4881 2.70699 10.8978 2.87099 11.2063 3.16497C11.3564 3.31487 11.4754 3.49287 11.5566 3.68881C11.6379 3.88475 11.6797 4.09478 11.6797 4.30689C11.6797 4.519 11.6379 4.72902 11.5566 4.92496C11.4754 5.1209 11.3564 5.29891 11.2063 5.44881L5.88325 10.7622L5.12036 10.0009L10.4434 4.68645C10.5443 4.58556 10.6009 4.44874 10.6009 4.30608C10.6009 4.16342 10.5443 4.0266 10.4434 3.92571C10.3406 3.82764 10.204 3.77292 10.062 3.77292C9.9199 3.77292 9.7833 3.82764 9.68052 3.92571L3.97333 9.62053C3.67047 9.9241 3.50061 10.3355 3.50111 10.7644C3.50162 11.1932 3.67244 11.6042 3.97602 11.9071C4.27958 12.2099 4.69103 12.3798 5.11984 12.3793C5.54865 12.3788 5.95969 12.2079 6.26255 11.9044L11.9692 6.21009C12.474 5.70426 12.7573 5.01861 12.7565 4.30396C12.7558 3.58931 12.4713 2.90421 11.9654 2.39938C11.4596 1.89455 10.7739 1.61133 10.0593 1.61204C9.34465 1.61275 8.65956 1.89732 8.15473 2.40315L1.68733 8.85924L0.924433 8.09796L7.39183 1.64187C7.74249 1.29152 8.15886 1.01385 8.61706 0.824773C9.07526 0.635694 9.56628 0.538929 10.062 0.540025Z" fill="#313131"/>
</svg>
