<svg width="370" height="55" viewBox="0 0 370 55" fill="none" xmlns="http://www.w3.org/2000/svg">
<path d="M94.1569 44.443H93.9814V44.2968C94.0399 44.3845 94.0984 44.4138 94.1569 44.443Z" fill="white"/>
<path d="M93.9814 44.326V44.4722H94.1569C94.0984 44.4138 94.0399 44.3845 93.9814 44.326Z" fill="white"/>
<path d="M157.801 6.95642H151.689V51.0269H157.801V6.95642Z" fill="white"/>
<path d="M170.606 51.0269L160.857 40.5012C159.626 39.0858 158.945 37.8545 158.945 36.0013C158.945 34.1482 160.057 32.5568 161.291 31.2641L171.156 20.8652H178.005L165.003 35.0236C164.855 35.1187 164.728 35.2447 164.633 35.393C164.537 35.5412 164.475 35.7082 164.45 35.8827C164.45 36.1895 164.696 36.439 165.003 36.7458L177.964 51.0269H170.606Z" fill="white"/>
<path d="M76.877 30.3437C76.877 18.4803 86.2572 9.07135 97.922 9.07135C105.018 9.07135 111.498 12.704 114.644 18.7339L109.521 21.6875C107.114 17.5639 102.979 15.0399 97.676 15.0399C89.6533 15.0399 83.3574 21.6875 83.3574 30.3641C83.3574 39.1676 89.5918 45.8766 97.676 45.8766C102.979 45.8766 107.175 43.3525 109.521 39.229L114.644 42.1825C111.498 48.2165 105.018 51.7837 97.922 51.7837C86.2531 51.7633 76.877 42.3462 76.877 30.3437Z" fill="white"/>
<path d="M114.706 35.8868C114.706 27.2674 121.617 20.1289 130.813 20.1289C140.009 20.1289 146.92 26.8992 146.92 35.8868V51.0229H141.116V45.7334C138.836 49.4152 134.824 51.7633 129.886 51.7633C121.117 51.7633 114.706 44.6248 114.706 35.8868ZM140.808 35.9482C140.796 33.9791 140.2 32.0577 139.094 30.4263C137.988 28.7949 136.423 27.5267 134.596 26.7815C132.768 26.0364 130.76 25.8477 128.825 26.2393C126.891 26.6308 125.115 27.5851 123.724 28.9818C122.332 30.3784 121.386 32.1549 121.005 34.087C120.624 36.0192 120.826 38.0206 121.584 39.8387C122.343 41.6568 123.624 43.2101 125.266 44.3029C126.909 45.3957 128.839 45.9788 130.813 45.9789C132.131 45.98 133.436 45.7208 134.653 45.2163C135.87 44.7118 136.975 43.972 137.904 43.0394C138.832 42.1069 139.567 41.0002 140.065 39.7831C140.563 38.566 140.814 37.2626 140.804 35.9482H140.808Z" fill="white"/>
<path d="M177.464 35.76C177.464 27.0833 183.698 20.0062 192.767 20.0062C201.901 20.0062 207.577 26.5924 207.577 35.0236V37.4781H183.378C184.055 42.6489 188.005 46.2775 193.435 46.2775C197.127 46.2775 200.469 44.678 202.258 41.3685L206.95 43.7657C204.296 48.9365 199.42 51.706 193.497 51.706C184.313 51.7019 177.464 45.0543 177.464 35.76ZM201.47 33.5468C201.224 28.7565 197.705 25.4838 192.705 25.4838C187.587 25.4838 184.252 29.0551 183.637 33.5468H201.47Z" fill="white"/>
<path d="M211.712 43.2094L213.627 42.2235C215.539 46.6579 219.981 49.2392 225.6 49.2392C231.892 49.2392 236.707 45.7948 236.707 40.0717C236.707 33.9354 231.215 32.6223 225.411 31.3296C219.181 29.9142 212.516 28.3146 212.516 20.4971C212.516 14.3608 218.315 9.66455 224.98 9.66455C230.595 9.66455 235.718 12.434 237.88 17.6662L236.026 18.7135C234.053 14.2831 230.042 11.8204 224.919 11.8204C219.55 11.8204 214.8 15.5758 214.8 20.4971C214.8 26.5924 220.354 27.8851 226.092 29.1778C232.322 30.6546 238.987 32.2541 238.987 40.0717C238.987 47.0261 233.245 51.3951 225.6 51.3951C219.365 51.3951 213.873 48.4415 211.712 43.2094Z" fill="white"/>
<path d="M245.841 51.027V7.75824H247.998V28.6215C249.914 23.9457 254.602 20.7425 260.217 20.7425C268.486 20.7425 273.608 26.7765 273.608 35.4695V51.0433H271.447V35.5759C271.447 28.7442 267.624 22.837 260.032 22.837C253.183 22.837 247.998 28.4374 247.998 35.9482V51.027H245.841Z" fill="white"/>
<path d="M278.05 36.12C278.017 34.0781 278.391 32.0501 279.151 30.154C279.912 28.2579 281.043 26.5317 282.479 25.076C283.915 23.6203 285.627 22.4641 287.515 21.675C289.403 20.8858 291.43 20.4794 293.478 20.4794C295.525 20.4794 297.552 20.8858 299.441 21.675C301.329 22.4641 303.041 23.6203 304.477 25.076C305.913 26.5317 307.044 28.2579 307.805 30.154C308.565 32.0501 308.939 34.0781 308.906 36.12V51.0147H306.81V42.833C305.664 45.4547 303.769 47.6816 301.362 49.2356C298.955 50.7897 296.142 51.6019 293.275 51.5711C284.715 51.5792 278.05 44.6248 278.05 36.12ZM306.761 36.12C306.761 32.6145 305.365 29.2526 302.879 26.7738C300.394 24.2951 297.023 22.9025 293.509 22.9025C289.994 22.9025 286.623 24.2951 284.138 26.7738C281.653 29.2526 280.257 32.6145 280.257 36.12C280.257 43.4426 286.118 49.4766 293.464 49.4766C296.999 49.4571 300.383 48.0401 302.872 45.5363C305.362 43.0325 306.754 39.6463 306.744 36.12H306.761Z" fill="white"/>
<path d="M315.756 51.0269V32.3155C315.756 25.6065 319.706 21.0534 325.879 21.0534C327.614 21.0264 329.329 21.4239 330.874 22.2111V24.4856C329.411 23.5845 327.721 23.1151 326.002 23.1316C321.08 23.1316 317.917 26.8133 317.917 32.4259V51.0147L315.756 51.0269Z" fill="white"/>
<path d="M329.517 36.1936C329.517 27.6355 335.382 20.7425 343.897 20.7425C352.288 20.7425 357.965 26.7151 357.965 35.2077V36.8072H331.74C331.986 43.8843 337.293 49.4888 344.573 49.4888C348.892 49.4888 352.904 47.7624 355.311 43.5775L357.038 44.6248C354.261 49.362 349.696 51.5792 344.573 51.5792C335.997 51.5792 329.517 44.8089 329.517 36.1936ZM355.808 34.9663C355.808 27.7051 350.808 22.8411 343.913 22.8411C337.018 22.8411 332.31 28.196 331.818 34.9663H355.808Z" fill="white"/>
<path d="M367.476 15.8294L353.354 16.1649C353.222 16.1791 353.096 16.2285 352.989 16.3079C352.883 16.3873 352.8 16.4939 352.748 16.6164C352.697 16.739 352.68 16.8729 352.699 17.0044C352.717 17.1358 352.771 17.2598 352.854 17.3635C354.258 17.5175 355.61 17.9816 356.812 18.7222C358.014 19.4628 359.035 20.4612 359.801 21.6448C360.568 22.8284 361.06 24.1675 361.243 25.5646C361.425 26.9618 361.293 28.382 360.856 29.7219C360.935 29.8345 361.036 29.9293 361.155 29.9998C361.273 30.0703 361.404 30.115 361.541 30.131C361.67 30.1372 361.797 30.1047 361.907 30.0375C362.017 29.9704 362.104 29.8718 362.156 29.7546L368.28 17.073C368.34 16.9389 368.365 16.7919 368.354 16.6455C368.343 16.499 368.295 16.3577 368.215 16.2342C368.136 16.1107 368.026 16.0091 367.897 15.9384C367.768 15.8677 367.623 15.8303 367.476 15.8294Z" fill="white"/>
<path d="M9.55024 39.908C9.55024 41.7243 9.39028 43.4384 9.58715 45.1116C9.90708 47.8729 12.2573 49.7628 15.1612 49.771C23.9494 49.7874 32.7377 49.7874 41.526 49.771C45.9762 49.771 50.4264 49.771 54.8766 49.771C56.9273 49.771 58.3588 48.7933 58.8797 47.0915C58.9838 46.745 59.0377 46.3855 59.0396 46.0238C59.0684 44.3875 59.0396 42.7511 59.0889 41.0821C59.0889 40.3048 58.7566 39.953 58.0143 39.9203C57.8174 39.9203 57.6246 39.9203 57.4277 39.9203H9.55024V39.908Z" fill="white"/>
<path d="M16.5766 53.2401C14.1854 53.2073 11.8475 53.0233 9.7352 51.8206C7.08559 50.3151 5.58442 48.1102 5.59672 44.9602C5.62133 38.3454 5.59672 31.7305 5.59672 25.1156C5.59672 21.9125 7.27016 20.2066 10.5186 20.2066C15.9491 20.2066 21.3754 20.2312 26.8059 20.2312C37.1336 20.2312 47.4613 20.2312 57.7891 20.2312H58.7529L58.8145 20.0062L37.4371 11.219C36.2928 14.3281 34.2297 16.5085 31.0756 17.5312C28.8827 18.2813 26.4896 18.1997 24.3531 17.3021C23.1902 16.8404 22.134 16.147 21.2489 15.2643C20.3638 14.3815 19.6686 13.328 19.2057 12.1681C18.2213 9.79135 18.3485 7.37776 19.3082 4.98462L19.1114 4.80872C17.3067 5.89279 15.4528 6.89504 13.7137 8.08138C9.23481 11.125 5.51059 14.8885 3.04965 19.7812C2.19738 21.4841 1.76033 23.3637 1.77407 25.267C1.77407 31.8123 1.77407 38.3863 1.79457 44.948C1.79457 49.137 4.07094 52.6551 7.62699 54.0132C10.1987 54.995 12.7416 54.5614 15.2559 53.7351C15.7071 53.5837 16.1377 53.4037 16.5766 53.2401Z" fill="white"/>
<path d="M59.0273 34.0745C59.0273 31.4319 59.0273 28.8955 59.0273 26.3633C59.0273 25.5452 58.3588 25.2302 57.6492 25.1852C56.4721 25.0747 55.2949 25.0747 54.1219 25.0747C40.9422 25.0747 27.7653 25.0747 14.5911 25.0747C12.9299 25.0747 11.3755 25.3406 10.3952 26.8419C10.0153 27.3887 9.76811 28.0162 9.67331 28.6746C9.53796 30.1146 9.54206 31.5709 9.53386 33.0191C9.53386 33.8373 10.0753 34.0541 10.8299 34.0541C17.9913 34.0541 25.1526 34.0541 32.3139 34.0541C40.7905 34.0541 49.267 34.0541 57.7436 34.0541L59.0273 34.0745Z" fill="white"/>
<path d="M28.4296 14.4794C29.2916 14.4935 30.1479 14.3369 30.9488 14.0186C31.7497 13.7002 32.4794 13.2266 33.0955 12.6251C33.7116 12.0235 34.2019 11.306 34.538 10.5141C34.8741 9.72226 35.0494 8.87174 35.0536 8.01184C35.0698 7.13053 34.9074 6.25504 34.5761 5.43787C34.2447 4.6207 33.7513 3.8787 33.1255 3.25637C32.4996 2.63404 31.7541 2.14421 30.9338 1.81626C30.1135 1.48831 29.2352 1.329 28.3516 1.34788C26.61 1.38705 24.9519 2.09981 23.7274 3.33562C22.5029 4.57144 21.8079 6.23355 21.7891 7.97093C21.814 9.70924 22.5252 11.3676 23.7684 12.5862C25.0116 13.8047 26.6865 14.485 28.4296 14.4794Z" fill="white"/>
</svg>
