<svg width="11" height="14" viewBox="0 0 11 14" fill="none" xmlns="http://www.w3.org/2000/svg">
<path d="M5.3577 9.85735C4.60022 9.85645 3.87402 9.55513 3.3384 9.01951C2.80278 8.48389 2.50147 7.75769 2.50056 7.00021V3.00021C2.50056 2.24245 2.80158 1.51572 3.3374 0.979904C3.87321 0.444086 4.59994 0.143066 5.3577 0.143066C6.11546 0.143066 6.84219 0.444086 7.37801 0.979904C7.91382 1.51572 8.21484 2.24245 8.21484 3.00021V7.00021C8.21394 7.75769 7.91263 8.48389 7.377 9.01951C6.84138 9.55513 6.11518 9.85645 5.3577 9.85735ZM10.5006 7.00021C10.5006 6.84866 10.4404 6.70331 10.3332 6.59615C10.226 6.48899 10.0807 6.42878 9.92913 6.42878C9.77758 6.42878 9.63223 6.48899 9.52507 6.59615C9.4179 6.70331 9.3577 6.84866 9.3577 7.00021C9.3577 8.06108 8.93627 9.07849 8.18613 9.82864C7.43598 10.5788 6.41857 11.0002 5.3577 11.0002C4.29683 11.0002 3.27942 10.5788 2.52927 9.82864C1.77913 9.07849 1.3577 8.06108 1.3577 7.00021C1.3577 6.84866 1.2975 6.70331 1.19033 6.59615C1.08317 6.48899 0.937825 6.42878 0.786272 6.42878C0.63472 6.42878 0.489375 6.48899 0.382211 6.59615C0.275048 6.70331 0.214844 6.84866 0.214844 7.00021C0.214844 8.36418 0.756679 9.67229 1.72115 10.6368C2.68562 11.6012 3.99373 12.1431 5.3577 12.1431C6.72167 12.1431 8.02978 11.6012 8.99425 10.6368C9.95872 9.67229 10.5006 8.36418 10.5006 7.00021ZM5.92913 13.2859V11.5716C5.92913 11.4201 5.86893 11.2747 5.76176 11.1676C5.6546 11.0604 5.50925 11.0002 5.3577 11.0002C5.20615 11.0002 5.0608 11.0604 4.95364 11.1676C4.84648 11.2747 4.78627 11.4201 4.78627 11.5716V13.2859C4.78627 13.4375 4.84648 13.5828 4.95364 13.69C5.0608 13.7971 5.20615 13.8574 5.3577 13.8574C5.50925 13.8574 5.6546 13.7971 5.76176 13.69C5.86893 13.5828 5.92913 13.4375 5.92913 13.2859Z" fill="#CDCDCD"/>
</svg>
