<svg width="19" height="23" viewBox="0 0 19 23" fill="none" xmlns="http://www.w3.org/2000/svg">
<path d="M5.58372 15.3896C5.58372 15.8204 5.20788 16.1779 4.76788 16.1779H4.00705V14.6012H4.77705C5.21705 14.6012 5.59288 14.9587 5.59288 15.3896H5.58372ZM12.0187 7.9554H18.0137C17.6929 7.12124 17.2071 6.35124 16.5562 5.7004L13.3662 2.50124C12.7251 1.86261 11.9568 1.36602 11.1112 1.04374V7.03874C11.1112 7.5429 11.5237 7.9554 12.0279 7.9554H12.0187ZM9.35122 14.6012H8.58122V17.8096H9.35122C9.79122 17.8096 10.1671 17.4521 10.1671 17.0212V15.3896C10.1671 14.9587 9.79122 14.6012 9.35122 14.6012ZM18.4354 10.2379V18.0387C18.4354 20.5687 16.3821 22.6221 13.8521 22.6221H4.68538C2.15538 22.6221 0.102051 20.5687 0.102051 18.0387V5.2054C0.102051 2.6754 2.15538 0.62207 4.68538 0.62207H8.81955C8.96622 0.62207 9.11289 0.631237 9.26872 0.640404V7.03874C9.26872 8.55124 10.5062 9.78874 12.0187 9.78874H18.4171C18.4262 9.9354 18.4354 10.0821 18.4354 10.2379ZM6.72955 15.3896C6.72955 14.3262 5.84955 13.4554 4.76788 13.4554H3.76872C3.26455 13.4554 2.85205 13.8679 2.85205 14.3721V18.4421C2.85205 18.7629 3.10872 19.0104 3.42038 19.0104C3.73205 19.0104 3.98872 18.7537 3.98872 18.4421V17.3237H4.75872C5.84038 17.3237 6.72039 16.4529 6.72039 15.3896H6.72955ZM11.3129 15.3896C11.3129 14.3262 10.4329 13.4554 9.35122 13.4554H8.35205C7.84789 13.4554 7.43539 13.8679 7.43539 14.3721V18.4421C7.43539 18.7629 7.69205 18.9554 8.00372 18.9554H9.34205C10.4237 18.9554 11.3037 18.0846 11.3037 17.0212V15.3896H11.3129ZM15.7037 14.0329C15.7037 13.7121 15.4471 13.4646 15.1354 13.4646H13.0179C12.6971 13.4646 12.4496 13.7212 12.4496 14.0329V18.4421C12.4496 18.7629 12.7062 19.0104 13.0179 19.0104C13.3296 19.0104 13.5862 18.7537 13.5862 18.4421V16.7921H14.7229C15.0437 16.7921 15.2912 16.5354 15.2912 16.2237C15.2912 15.9121 15.0346 15.6554 14.7229 15.6554H13.5862V14.6104H15.1354C15.4562 14.6104 15.7037 14.3537 15.7037 14.0421V14.0329Z" fill="#D74120"/>
</svg>
