<svg width="15" height="14" viewBox="0 0 15 14" fill="none" xmlns="http://www.w3.org/2000/svg">
<path d="M5.34948 6.84716C3.50195 6.84716 1.99948 5.34468 1.99948 3.49716C1.99948 1.64963 3.50195 0.147156 5.34948 0.147156C7.197 0.147156 8.69948 1.64963 8.69948 3.49716C8.69948 5.34468 7.197 6.84716 5.34948 6.84716ZM11.6637 5.73551C10.4973 5.66461 9.4683 6.38653 8.95855 7.43787C8.59954 8.17878 8.65872 8.83761 8.86307 9.42833C8.86307 9.42833 8.69948 9.63826 8.69948 9.91743C8.69948 10.4758 8.6872 10.7549 8.6872 10.7549H8.12886C7.98078 10.7549 7.83877 10.8138 7.73406 10.9185C7.62935 11.0232 7.57053 11.1652 7.57053 11.3133V11.8716H7.02448C6.8764 11.8716 6.73439 11.9304 6.62968 12.0351C6.52497 12.1398 6.46615 12.2819 6.46615 12.4299V12.9883C6.46615 13.1363 6.52497 13.2784 6.62968 13.3831C6.73439 13.4878 6.8764 13.5466 7.02448 13.5466H7.45775C7.75388 13.5465 8.03786 13.4288 8.24723 13.2194L10.384 11.0827C10.7691 11.2496 11.1868 11.3276 11.6062 11.3107C12.0256 11.2938 12.4358 11.1825 12.8062 10.9852C13.1766 10.7878 13.4977 10.5094 13.7457 10.1708C13.9936 9.8321 14.1619 9.44186 14.2381 9.02912C14.3097 8.64053 14.2979 8.2412 14.2037 7.85747C14.1096 7.47375 13.9351 7.11437 13.6918 6.80305C13.4484 6.49174 13.1419 6.23556 12.7923 6.05145C12.4427 5.86733 12.058 5.76002 11.6637 5.73551ZM12.0495 8.80132C11.9395 8.80129 11.8305 8.77958 11.7289 8.73744C11.6273 8.69531 11.5349 8.63357 11.4572 8.55575C11.3794 8.47792 11.3177 8.38555 11.2756 8.28389C11.2336 8.18223 11.2119 8.07328 11.212 7.96326C11.212 7.85325 11.2337 7.74431 11.2759 7.64268C11.318 7.54105 11.3797 7.44872 11.4576 7.37095C11.5354 7.29318 11.6278 7.2315 11.7294 7.18943C11.8311 7.14736 11.94 7.12573 12.05 7.12576C12.2722 7.12584 12.4853 7.21418 12.6424 7.37134C12.7994 7.52851 12.8876 7.74163 12.8875 7.96382C12.8875 8.18602 12.7991 8.39908 12.642 8.55614C12.4848 8.7132 12.2717 8.8014 12.0495 8.80132ZM5.34948 12.9888V12.4305C5.34948 11.6806 5.84472 11.0447 6.52477 10.832C6.60218 10.5763 6.73939 10.3427 6.92503 10.1505C7.11067 9.95837 7.33941 9.81321 7.5923 9.72704C7.60738 9.58243 7.63809 9.45011 7.67605 9.3323C7.62273 9.08344 7.59541 8.82971 7.59454 8.5752C6.91401 8.17505 6.13893 7.96398 5.34948 7.96382C2.88667 7.96382 0.882812 9.96768 0.882812 12.4305V12.9888C0.882813 13.1369 0.941637 13.2789 1.04634 13.3836C1.15105 13.4883 1.29307 13.5472 1.44115 13.5472H5.45221C5.38609 13.3683 5.35133 13.1795 5.34948 12.9888Z" fill="white"/>
</svg>
