<svg width="15" height="14" viewBox="0 0 15 14" fill="none" xmlns="http://www.w3.org/2000/svg">
<path d="M11.3802 0.105469H3.33659C1.75085 0.105469 0.463867 1.39245 0.463867 2.97819V11.0218C0.463867 12.6076 1.75085 13.8945 3.33659 13.8945H11.3802C12.966 13.8945 14.2529 12.6076 14.2529 11.0218V2.97819C14.2529 1.39245 12.966 0.105469 11.3802 0.105469ZM4.48568 10.4473C4.48568 10.7633 4.22713 11.0218 3.91113 11.0218C3.59513 11.0218 3.33659 10.7633 3.33659 10.4473V7C3.33659 6.684 3.59513 6.42546 3.91113 6.42546C4.22713 6.42546 4.48568 6.684 4.48568 7V10.4473ZM6.78385 10.4473C6.78385 10.7633 6.52531 11.0218 6.20931 11.0218C5.89331 11.0218 5.63477 10.7633 5.63477 10.4473V5.27637C5.63477 4.96037 5.89331 4.70182 6.20931 4.70182C6.52531 4.70182 6.78385 4.96037 6.78385 5.27637V10.4473ZM9.08203 10.4473C9.08203 10.7633 8.82349 11.0218 8.50749 11.0218C8.19149 11.0218 7.93294 10.7633 7.93294 10.4473V3.55273C7.93294 3.23673 8.19149 2.97819 8.50749 2.97819C8.82349 2.97819 9.08203 3.23673 9.08203 3.55273V10.4473ZM11.3802 10.4473C11.3802 10.7633 11.1217 11.0218 10.8057 11.0218C10.4897 11.0218 10.2311 10.7633 10.2311 10.4473V8.72363C10.2311 8.40763 10.4897 8.14909 10.8057 8.14909C11.1217 8.14909 11.3802 8.40763 11.3802 8.72363V10.4473Z" fill="#313131"/>
</svg>
