<svg width="24" height="23" viewBox="0 0 24 23" fill="none" xmlns="http://www.w3.org/2000/svg">
<g clip-path="url(#clip0_1619_28410)">
<path d="M11.9886 22.7446C6.77805 22.7446 2.53894 18.5055 2.53894 13.295C2.53894 10.1218 3.96111 8.13644 6.09673 6.13217L8.41001 3.9597L7.66159 7.04312C7.40173 8.1166 7.33369 11.3956 8.71239 13.1485C9.28977 13.8828 10.0524 14.24 11.0436 14.24C12.0897 14.24 12.9203 13.4046 12.9335 12.3378C12.9468 11.2822 12.5008 10.4081 12.0283 9.48396C11.5445 8.5371 11.0436 7.55907 11.0436 6.3703C11.0436 3.8085 12.3779 1.48673 12.4346 1.38939L13.217 0.0456543L14.0496 1.3601C14.8518 2.62541 15.9338 3.80472 16.9818 4.94529C19.1732 7.33038 21.4392 9.79863 21.4392 13.2959C21.4392 18.5065 17.2001 22.7456 11.9895 22.7456L11.9886 22.7446Z" fill="#4E6199"/>
</g>
<defs>
<clipPath id="clip0_1619_28410">
<rect width="22.6791" height="22.6791" fill="white" transform="translate(0.6604 0.000488281)"/>
</clipPath>
</defs>
</svg>
