<svg width="19" height="23" viewBox="0 0 19 23" fill="none" xmlns="http://www.w3.org/2000/svg">
<path d="M11.1021 7.03874V1.04374C11.9362 1.36457 12.7062 1.8504 13.357 2.50124L16.5471 5.7004C17.1979 6.35124 17.6837 7.12124 18.0046 7.9554H12.0096C11.5054 7.9554 11.0929 7.5429 11.0929 7.03874H11.1021ZM12.4771 13.4554H6.06038C5.80372 13.4554 5.60205 13.6571 5.60205 13.9137V16.6637C5.60205 16.9204 5.80372 17.1221 6.06038 17.1221H12.4771C12.7337 17.1221 12.9354 16.9204 12.9354 16.6637V13.9137C12.9354 13.6571 12.7337 13.4554 12.4771 13.4554ZM18.4354 10.2379V18.0387C18.4354 20.5687 16.3821 22.6221 13.8521 22.6221H4.68538C2.15538 22.6221 0.102051 20.5687 0.102051 18.0387V5.2054C0.102051 2.6754 2.15538 0.62207 4.68538 0.62207H8.81955C8.96622 0.62207 9.11288 0.631237 9.26872 0.640404V7.03874C9.26872 8.55124 10.5062 9.78874 12.0187 9.78874H18.4171C18.4262 9.9354 18.4354 10.0821 18.4354 10.2379ZM3.76872 8.87207C3.76872 9.37624 4.18122 9.78874 4.68538 9.78874H6.51872C7.02288 9.78874 7.43538 9.37624 7.43538 8.87207C7.43538 8.3679 7.02288 7.9554 6.51872 7.9554H4.68538C4.18122 7.9554 3.76872 8.3679 3.76872 8.87207ZM14.7687 13.9137C14.7687 13.3059 14.5273 12.7231 14.0975 12.2933C13.6677 11.8635 13.0848 11.6221 12.4771 11.6221H6.06038C5.4526 11.6221 4.8697 11.8635 4.43993 12.2933C4.01016 12.7231 3.76872 13.3059 3.76872 13.9137V16.6637C3.76872 17.2715 4.01016 17.8544 4.43993 18.2842C4.8697 18.714 5.4526 18.9554 6.06038 18.9554H12.4771C13.0848 18.9554 13.6677 18.714 14.0975 18.2842C14.5273 17.8544 14.7687 17.2715 14.7687 16.6637V13.9137Z" fill="#ED8E00"/>
</svg>
