<svg width="23" height="23" viewBox="0 0 23 23" fill="none" xmlns="http://www.w3.org/2000/svg">
<path d="M20.929 20.1427H19.984V9.49294C19.984 8.90707 19.7194 8.35899 19.2564 7.9999L18.0941 7.09273L18.0752 4.77757C18.0752 4.25784 17.65 3.84206 17.1302 3.84206H13.9079L12.6417 2.85929C11.9613 2.32066 10.9974 2.32066 10.317 2.85929L3.70229 7.9999C3.23926 8.35899 2.97467 8.90707 2.97467 9.4835L2.92742 20.1427H2.02971C1.64227 20.1427 1.32098 20.464 1.32098 20.8515C1.32098 21.2389 1.64227 21.5602 2.02971 21.5602H20.929C21.3164 21.5602 21.6377 21.2389 21.6377 20.8515C21.6377 20.464 21.3164 20.1427 20.929 20.1427ZM6.28205 12.1104V10.693C6.28205 10.1733 6.70728 9.74804 7.22701 9.74804H9.11694C9.63667 9.74804 10.0619 10.1733 10.0619 10.693V12.1104C10.0619 12.6302 9.63667 13.0554 9.11694 13.0554H7.22701C6.70728 13.0554 6.28205 12.6302 6.28205 12.1104ZM13.8418 20.1427H9.11694V17.544C9.11694 16.7597 9.75007 16.1265 10.5344 16.1265H12.4243C13.2086 16.1265 13.8418 16.7597 13.8418 17.544V20.1427ZM16.6767 12.1104C16.6767 12.6302 16.2514 13.0554 15.7317 13.0554H13.8418C13.322 13.0554 12.8968 12.6302 12.8968 12.1104V10.693C12.8968 10.1733 13.322 9.74804 13.8418 9.74804H15.7317C16.2514 9.74804 16.6767 10.1733 16.6767 10.693V12.1104Z" fill="#4E6199"/>
</svg>
