<svg width="14" height="14" viewBox="0 0 14 14" fill="none" xmlns="http://www.w3.org/2000/svg">
<path d="M6.00156 6.7885C4.15404 6.7885 2.65156 5.28603 2.65156 3.4385C2.65156 1.59098 4.15404 0.088501 6.00156 0.088501C7.84909 0.088501 9.35156 1.59098 9.35156 3.4385C9.35156 5.28603 7.84909 6.7885 6.00156 6.7885ZM13.6485 10.7717L13.1047 10.4579C13.1974 10.1804 13.2599 9.88893 13.2599 9.58017C13.2599 9.27141 13.1979 8.97996 13.1047 8.70247L13.6485 8.38868C13.7757 8.31412 13.8682 8.19227 13.9059 8.04973C13.9436 7.90719 13.9234 7.75553 13.8497 7.62785C13.7759 7.50016 13.6547 7.40682 13.5124 7.36819C13.3701 7.32956 13.2183 7.34878 13.0902 7.42165L12.5469 7.73543C12.1502 7.28157 11.6165 6.96918 11.0266 6.84545V6.23073C11.0266 6.08265 10.9677 5.94063 10.863 5.83592C10.7583 5.73122 10.6163 5.67239 10.4682 5.67239C10.3202 5.67239 10.1781 5.73122 10.0734 5.83592C9.96872 5.94063 9.9099 6.08265 9.9099 6.23073V6.84545C9.32009 6.9696 8.78655 7.28192 8.38956 7.73543L7.8463 7.42165C7.71813 7.34878 7.56634 7.32956 7.42405 7.36819C7.28176 7.40682 7.16053 7.50016 7.08681 7.62785C7.01309 7.75553 6.99287 7.90719 7.03055 8.04973C7.06824 8.19227 7.16077 8.31412 7.28796 8.38868L7.83178 8.70247C7.7391 8.97996 7.67656 9.27141 7.67656 9.58017C7.67656 9.88893 7.73854 10.1804 7.83178 10.4579L7.28796 10.7717C7.16077 10.8462 7.06824 10.9681 7.03055 11.1106C6.99287 11.2531 7.01309 11.4048 7.08681 11.5325C7.16053 11.6602 7.28176 11.7535 7.42405 11.7921C7.56634 11.8308 7.71813 11.8116 7.8463 11.7387L8.38956 11.4249C8.78627 11.8788 9.31993 12.1912 9.9099 12.3149V12.9296C9.9099 13.0777 9.96872 13.2197 10.0734 13.3244C10.1781 13.4291 10.3202 13.4879 10.4682 13.4879C10.6163 13.4879 10.7583 13.4291 10.863 13.3244C10.9677 13.2197 11.0266 13.0777 11.0266 12.9296V12.3149C11.6164 12.1907 12.1499 11.8784 12.5469 11.4249L13.0902 11.7387C13.1536 11.7756 13.2237 11.7995 13.2964 11.8092C13.3692 11.8189 13.4431 11.8141 13.514 11.7951C13.5849 11.7761 13.6513 11.7433 13.7095 11.6986C13.7676 11.6538 13.8163 11.598 13.8528 11.5343C13.9269 11.4061 13.9469 11.2537 13.9086 11.1107C13.8703 10.9676 13.7767 10.8457 13.6485 10.7717ZM10.4682 10.4177C10.0065 10.4177 9.63073 10.0419 9.63073 9.58017C9.63073 9.11843 10.0065 8.74267 10.4682 8.74267C10.93 8.74267 11.3057 9.11843 11.3057 9.58017C11.3057 10.0419 10.93 10.4177 10.4682 10.4177ZM5.44323 9.58017C5.44323 8.99727 5.54764 8.43949 5.73021 7.91913C3.08595 8.06094 0.976562 10.2513 0.976562 12.9302C0.976563 13.0782 1.03539 13.2203 1.14009 13.325C1.2448 13.4297 1.38682 13.4885 1.5349 13.4885H7.31309C6.729 13.0183 6.25781 12.4231 5.93421 11.7467C5.6106 11.0703 5.44283 10.33 5.44323 9.58017Z" fill="white"/>
</svg>
