<svg width="19" height="20" viewBox="0 0 19 20" fill="none" xmlns="http://www.w3.org/2000/svg">
<path d="M18.1792 2.24527L4.21911 16.2016C4.5209 16.3487 4.85193 16.426 5.18766 16.4277H7.57852C7.67754 16.4274 7.77563 16.4468 7.86711 16.4847C7.95858 16.5227 8.04163 16.5783 8.11143 16.6486L9.40712 17.9435C9.75501 18.2938 10.1687 18.5719 10.6244 18.7618C11.0801 18.9517 11.5689 19.0496 12.0625 19.05C12.4742 19.0496 12.8831 18.9821 13.273 18.8503C14.6174 18.4095 15.5953 17.2441 15.7958 15.8436L18.3427 3.74598C18.4643 3.24195 18.4065 2.71129 18.1792 2.24527ZM15.6315 1.0076L3.56335 3.55C1.50132 3.83329 0.0593638 5.73456 0.342654 7.79659C0.454544 8.61093 0.829597 9.36636 1.41066 9.94776L2.70561 11.2427C2.77569 11.3128 2.83127 11.396 2.86917 11.4875C2.90706 11.5791 2.92653 11.6773 2.92646 11.7764V14.1672C2.9282 14.5029 3.00549 14.834 3.15259 15.1358L17.1104 1.17571C16.6517 0.950298 16.1291 0.890888 15.6315 1.0076Z" fill="#408F8C"/>
</svg>
