<svg width="16" height="16" viewBox="0 0 16 16" fill="none" xmlns="http://www.w3.org/2000/svg">
<path d="M11.5656 7.98721C9.46929 7.98721 7.76563 9.69087 7.76563 11.7872C7.76563 13.8835 9.46929 15.5872 11.5656 15.5872C13.662 15.5872 15.3656 13.8835 15.3656 11.7872C15.3656 9.69087 13.662 7.98721 11.5656 7.98721ZM12.199 13.6872C12.199 14.0355 11.914 14.3205 11.5656 14.3205C11.2173 14.3205 10.9323 14.0355 10.9323 13.6872V12.4205C10.9323 12.0722 11.2173 11.7872 11.5656 11.7872C11.914 11.7872 12.199 12.0722 12.199 12.4205V13.6872ZM11.5656 11.1539C11.04 11.1539 10.6156 10.7295 10.6156 10.2039C10.6156 9.67821 11.04 9.25387 11.5656 9.25387C12.0913 9.25387 12.5156 9.67821 12.5156 10.2039C12.5156 10.7295 12.0913 11.1539 11.5656 11.1539ZM7.18296 14.3205H3.33229C1.58429 14.3205 0.165627 12.9019 0.165627 11.1539V3.55387C0.165627 1.80587 1.58429 0.387207 3.33229 0.387207H6.49896V3.55387C6.49896 4.59887 7.35396 5.45387 8.39896 5.45387H11.5656V6.72054C8.77263 6.72054 6.49896 8.99421 6.49896 11.7872C6.49896 12.7119 6.75229 13.5732 7.18296 14.3205ZM7.76563 3.55387V0.482207C8.05696 0.577207 8.32296 0.729207 8.54463 0.94454L11.0146 3.43987C11.2236 3.64887 11.3693 3.90221 11.458 4.18087H8.39896C8.05063 4.18087 7.76563 3.89587 7.76563 3.54754V3.55387Z" fill="#4E6199"/>
</svg>
