<svg width="14" height="17" viewBox="0 0 14 17" fill="none" xmlns="http://www.w3.org/2000/svg">
<path d="M11.5422 1.44448L7.31329 0.0344044C7.17483 -0.0117123 7.02515 -0.0117123 6.88669 0.0344044L2.65714 1.44448C1.9849 1.66794 1.40017 2.09754 0.986003 2.67226C0.571836 3.24699 0.349295 3.9376 0.349992 4.646V8.09998C0.349992 13.205 6.55999 16.0245 6.82594 16.1419C6.91222 16.1803 7.00558 16.2001 7.09999 16.2001C7.1944 16.2001 7.28776 16.1803 7.37404 16.1419C7.63999 16.0245 13.85 13.205 13.85 8.09998V4.646C13.8506 3.93752 13.628 3.24684 13.2137 2.67211C12.7994 2.09738 12.2145 1.66782 11.5422 1.44448ZM7.09999 12.825C6.96649 12.825 6.83599 12.7854 6.72498 12.7112C6.61398 12.6371 6.52746 12.5316 6.47637 12.4083C6.42528 12.285 6.41192 12.1492 6.43796 12.0183C6.46401 11.8874 6.5283 11.7671 6.6227 11.6727C6.7171 11.5783 6.83737 11.514 6.96831 11.488C7.09924 11.4619 7.23496 11.4753 7.3583 11.5264C7.48164 11.5775 7.58706 11.664 7.66123 11.775C7.7354 11.886 7.77499 12.0165 7.77499 12.15C7.77499 12.329 7.70388 12.5007 7.57729 12.6273C7.4507 12.7539 7.27901 12.825 7.09999 12.825ZM7.77499 9.44998C7.77499 9.629 7.70388 9.80069 7.57729 9.92728C7.4507 10.0539 7.27901 10.125 7.09999 10.125C6.92097 10.125 6.74928 10.0539 6.6227 9.92728C6.49611 9.80069 6.42499 9.629 6.42499 9.44998V4.04998C6.42499 3.87096 6.49611 3.69927 6.6227 3.57268C6.74928 3.4461 6.92097 3.37498 7.09999 3.37498C7.27901 3.37498 7.4507 3.4461 7.57729 3.57268C7.70388 3.69927 7.77499 3.87096 7.77499 4.04998V9.44998Z" fill="#419400"/>
</svg>
