<svg width="14" height="16" viewBox="0 0 14 16" fill="none" xmlns="http://www.w3.org/2000/svg">
<path d="M12.6921 2.71914H10.6508C10.3357 1.1872 8.98812 0.0871195 7.42411 0.085144H6.1071C4.54308 0.0871195 3.19548 1.1872 2.88045 2.71914H0.839109C0.475431 2.71914 0.180618 3.01395 0.180618 3.37763C0.180618 3.74131 0.475431 4.03615 0.839109 4.03615H1.4976V12.5967C1.49979 14.4141 2.97262 15.887 4.79012 15.8892H8.74112C10.5586 15.887 12.0314 14.4141 12.0336 12.5967V4.03615H12.6921C13.0558 4.03615 13.3506 3.74134 13.3506 3.37766C13.3506 3.01398 13.0558 2.71914 12.6921 2.71914ZM6.10713 11.2797C6.10713 11.6433 5.81231 11.9382 5.44864 11.9382C5.08493 11.9382 4.79012 11.6433 4.79012 11.2797V7.32866C4.79012 6.96499 5.08493 6.67017 5.44861 6.67017C5.81228 6.67017 6.1071 6.96499 6.1071 7.32866V11.2797H6.10713ZM8.74112 11.2797C8.74112 11.6433 8.44631 11.9382 8.08263 11.9382C7.71895 11.9382 7.42414 11.6433 7.42414 11.2797V7.32866C7.42414 6.96499 7.71895 6.67017 8.08263 6.67017C8.44631 6.67017 8.74112 6.96499 8.74112 7.32866V11.2797ZM4.24423 2.71914C4.52432 1.93045 5.27019 1.40314 6.10713 1.40213H7.42414C8.26107 1.40314 9.00695 1.93045 9.28704 2.71914H4.24423Z" fill="#D74120"/>
</svg>
