<svg width="51" height="42" viewBox="0 0 51 42" fill="none" xmlns="http://www.w3.org/2000/svg">
<path d="M38.399 10.8385C38.0662 10.7765 37.7527 10.6369 37.4841 10.4309C37.2155 10.2249 36.9993 9.95837 36.8531 9.65304C33.624 2.83845 26.1385 -0.971966 18.6573 0.407201C15.319 1.02816 12.2524 2.66068 9.87322 5.08342C7.49409 7.50615 5.91753 10.6019 5.35729 13.951C5.02043 15.9459 5.04371 17.9851 5.42604 19.9718C5.55104 20.6155 5.27396 21.3322 4.70521 21.8489C3.52453 22.9236 2.58101 24.2328 1.93495 25.6928C1.28889 27.1528 0.954496 28.7315 0.953125 30.328C0.953125 36.6447 6.09271 41.7864 12.4115 41.7864H35.3281C43.9448 41.7864 50.9531 34.778 50.9531 26.1614C50.9531 18.7343 45.674 12.2885 38.399 10.8385ZM32.4552 24.5093C32.2622 24.7034 32.0327 24.8575 31.7799 24.9626C31.5271 25.0677 31.2561 25.1219 30.9823 25.1219C30.7085 25.1219 30.4375 25.0677 30.1847 24.9626C29.9319 24.8575 29.7024 24.7034 29.5094 24.5093L25.9531 20.953V31.3697C25.9531 31.9222 25.7336 32.4521 25.3429 32.8428C24.9522 33.2335 24.4223 33.453 23.8698 33.453C23.3173 33.453 22.7874 33.2335 22.3967 32.8428C22.006 32.4521 21.7865 31.9222 21.7865 31.3697V20.953L18.2302 24.5093C17.8396 24.8999 17.3097 25.1194 16.7573 25.1194C16.2048 25.1194 15.675 24.8999 15.2844 24.5093C14.8937 24.1186 14.6743 23.5888 14.6743 23.0364C14.6743 22.7628 14.7282 22.492 14.8328 22.2392C14.9375 21.9865 15.0909 21.7569 15.2844 21.5635L20.924 15.9239C21.6978 15.1499 22.7462 14.7133 23.8406 14.7093L23.8698 14.703L23.899 14.7093C24.9934 14.7131 26.042 15.1497 26.8156 15.9239L32.4552 21.5635C32.6488 21.7568 32.8025 21.9864 32.9073 22.2391C33.0121 22.4918 33.066 22.7628 33.066 23.0364C33.066 23.31 33.0121 23.5809 32.9073 23.8336C32.8025 24.0864 32.6488 24.316 32.4552 24.5093Z" fill="#4E6199"/>
</svg>
