<svg width="15" height="14" viewBox="0 0 15 14" fill="none" xmlns="http://www.w3.org/2000/svg">
<path d="M5.16406 7.34683C4.66714 7.34683 4.18137 7.19948 3.76819 6.9234C3.35501 6.64733 3.03298 6.25493 2.84282 5.79583C2.65265 5.33673 2.60289 4.83155 2.69984 4.34417C2.79678 3.85679 3.03608 3.40911 3.38746 3.05773C3.73884 2.70635 4.18652 2.46706 4.6739 2.37011C5.16127 2.27317 5.66645 2.32292 6.12555 2.51309C6.58465 2.70325 6.97705 3.02529 7.25313 3.43846C7.52921 3.85164 7.67656 4.33741 7.67656 4.83433C7.67582 5.50046 7.41088 6.1391 6.93985 6.61012C6.46883 7.08115 5.83019 7.3461 5.16406 7.34683ZM8.79323 13.4885H1.5349C1.38682 13.4885 1.2448 13.4297 1.14009 13.325C1.03539 13.2203 0.976563 13.0782 0.976562 12.9302V12.651C0.976562 11.5404 1.41774 10.4753 2.20305 9.68999C2.98836 8.90468 4.05347 8.4635 5.16406 8.4635C6.27466 8.4635 7.33976 8.90468 8.12507 9.68999C8.91038 10.4753 9.35156 11.5404 9.35156 12.651V12.9302C9.35156 13.0782 9.29274 13.2203 9.18803 13.325C9.08332 13.4297 8.94131 13.4885 8.79323 13.4885ZM10.7474 5.1135C10.2505 5.1135 9.7647 4.96615 9.35153 4.69007C8.93835 4.41399 8.61631 4.02159 8.42615 3.56249C8.23598 3.10339 8.18623 2.59821 8.28317 2.11084C8.38012 1.62346 8.61941 1.17578 8.97079 0.824396C9.32217 0.473017 9.76985 0.233724 10.2572 0.136779C10.7446 0.0398337 11.2498 0.0895896 11.7089 0.279755C12.168 0.46992 12.5604 0.791953 12.8365 1.20513C13.1125 1.61831 13.2599 2.10408 13.2599 2.601C13.2592 3.26713 12.9942 3.90577 12.5232 4.37679C12.0522 4.84782 11.4135 5.11276 10.7474 5.1135ZM9.954 6.24189C9.43399 6.31166 8.93398 6.48807 8.48531 6.76005C8.03664 7.03204 7.64897 7.39376 7.34659 7.82253C8.59775 8.39073 9.58082 9.42061 10.0902 10.6968H13.8182C13.9663 10.6968 14.1083 10.638 14.213 10.5333C14.3177 10.4286 14.3766 10.2866 14.3766 10.1385V10.1173C14.376 9.56074 14.2567 9.01072 14.0266 8.50395C13.7966 7.99718 13.4611 7.54532 13.0425 7.17853C12.6239 6.81174 12.1319 6.53846 11.5993 6.37695C11.0667 6.21543 10.5058 6.16939 9.954 6.24189Z" fill="white"/>
</svg>
