<svg width="23" height="23" viewBox="0 0 23 23" fill="none" xmlns="http://www.w3.org/2000/svg">
<g clip-path="url(#clip0_1619_28437)">
<path d="M0.15271 10.4595V8.09701C0.15271 7.72107 0.302053 7.36052 0.567886 7.09469C0.833719 6.82886 1.19427 6.67951 1.57021 6.67951C1.57021 6.67951 2.47646 6.67951 2.51521 6.67951C3.09992 5.38006 3.79119 4.13123 4.58192 2.94582C5.05408 2.33185 5.70837 1.88298 6.45113 1.66345C8.11528 0.854533 14.8701 0.854533 16.5343 1.66345C17.2771 1.88298 17.9313 2.33185 18.4035 2.94582C19.1942 4.13123 19.8855 5.38006 20.4702 6.67951H21.4152C21.7912 6.67951 22.1517 6.82886 22.4175 7.09469C22.6834 7.36052 22.8327 7.72107 22.8327 8.09701V10.4595C19.0778 9.89348 15.2895 9.57779 11.4927 9.51451C7.69594 9.57779 3.90758 9.89348 0.15271 10.4595ZM22.8327 12.3712V14.2395C22.8327 15.242 22.4345 16.2035 21.7256 16.9124C21.0167 17.6213 20.0552 18.0195 19.0527 18.0195H3.93271C2.93019 18.0195 1.96873 17.6213 1.25985 16.9124C0.550959 16.2035 0.15271 15.242 0.15271 14.2395V12.375C3.90708 11.801 7.6954 11.4768 11.4927 11.4045C15.29 11.4768 19.0783 11.801 22.8327 12.375V12.3712ZM5.82271 15.1845C5.82271 14.9339 5.72315 14.6935 5.54593 14.5163C5.3687 14.3391 5.12834 14.2395 4.87771 14.2395C4.62708 14.2395 4.38672 14.3391 4.20949 14.5163C4.03227 14.6935 3.93271 14.9339 3.93271 15.1845C3.93271 15.4351 4.03227 15.6755 4.20949 15.8527C4.38672 16.03 4.62708 16.1295 4.87771 16.1295C5.12834 16.1295 5.3687 16.03 5.54593 15.8527C5.72315 15.6755 5.82271 15.4351 5.82271 15.1845ZM19.0527 15.1845C19.0527 14.9339 18.9531 14.6935 18.7759 14.5163C18.5987 14.3391 18.3583 14.2395 18.1077 14.2395C17.8571 14.2395 17.6167 14.3391 17.4395 14.5163C17.2623 14.6935 17.1627 14.9339 17.1627 15.1845C17.1627 15.4351 17.2623 15.6755 17.4395 15.8527C17.6167 16.03 17.8571 16.1295 18.1077 16.1295C18.3583 16.1295 18.5987 16.03 18.7759 15.8527C18.9531 15.6755 19.0527 15.4351 19.0527 15.1845ZM6.7129 19.9095C7.26761 23.646 1.54186 23.6442 2.09752 19.9095H6.7129ZM20.8879 19.9095C21.4426 23.646 15.7169 23.6442 16.2725 19.9095H20.8879Z" fill="#4E6199"/>
</g>
<defs>
<clipPath id="clip0_1619_28437">
<rect width="22.68" height="22.68" fill="white" transform="translate(0.160034)"/>
</clipPath>
</defs>
</svg>
