<svg width="23" height="23" viewBox="0 0 23 23" fill="none" xmlns="http://www.w3.org/2000/svg">
<g clip-path="url(#clip0_1619_28422)">
<path d="M5.83282 4.3667C5.80767 3.56929 6.44466 2.89148 7.25903 2.89148H11.9534C12.7275 2.89148 13.3612 3.5095 13.3767 4.28624C13.41 5.95675 13.6295 11.9119 15.0592 18.0109H16.0045C15.0954 14.1332 14.6756 10.3135 14.4817 7.6163H15.6707C16.5268 7.6163 17.1405 8.34649 17.1173 9.12358C17.0843 10.221 17.1741 13.3132 18.7674 18.0109H19.9857C20.5076 18.0109 20.9307 18.434 20.9307 18.9559C20.9307 19.4778 20.5076 19.9008 19.9857 19.9008H2.97634C2.45445 19.9008 2.03137 19.4778 2.03137 18.9559C2.03137 18.434 2.45445 18.0109 2.97634 18.0109H4.16411C5.91739 11.9784 5.88661 6.07138 5.83282 4.3667Z" fill="#4E6199"/>
</g>
<defs>
<clipPath id="clip0_1619_28422">
<rect width="22.6791" height="22.6791" fill="white" transform="translate(0.1604 0.000488281)"/>
</clipPath>
</defs>
</svg>
