<svg width="16" height="12" viewBox="0 0 16 12" fill="none" xmlns="http://www.w3.org/2000/svg">
<path d="M15.4169 5.29492C14.8486 4.05226 12.6203 0 7.7661 0C2.91193 0 0.683542 4.05226 0.115281 5.29492C0.0389984 5.46146 -0.000488281 5.64248 -0.000488281 5.82565C-0.000488281 6.00882 0.0389984 6.18984 0.115281 6.35637C0.683542 7.59774 2.91193 11.65 7.7661 11.65C12.6203 11.65 14.8486 7.59774 15.4169 6.35508C15.493 6.18873 15.5324 6.00794 15.5324 5.825C15.5324 5.64206 15.493 5.46127 15.4169 5.29492ZM7.7661 9.70833C6.99804 9.70833 6.24724 9.48058 5.60863 9.05387C4.97002 8.62717 4.47228 8.02067 4.17836 7.31109C3.88444 6.6015 3.80754 5.82069 3.95738 5.0674C4.10722 4.31411 4.47707 3.62216 5.02016 3.07907C5.56326 2.53597 6.2552 2.16612 7.00849 2.01628C7.76179 1.86644 8.5426 1.94335 9.25218 2.23727C9.96177 2.53119 10.5683 3.02892 10.995 3.66754C11.4217 4.30615 11.6494 5.05695 11.6494 5.825C11.6484 6.85461 11.2389 7.84175 10.5109 8.5698C9.78285 9.29784 8.7957 9.7073 7.7661 9.70833Z" fill="#408F8C"/>
<path d="M7.76613 8.41392C9.19594 8.41392 10.355 7.25484 10.355 5.82503C10.355 4.39523 9.19594 3.23615 7.76613 3.23615C6.33633 3.23615 5.17725 4.39523 5.17725 5.82503C5.17725 7.25484 6.33633 8.41392 7.76613 8.41392Z" fill="#408F8C"/>
</svg>
