<svg width="12" height="12" viewBox="0 0 12 12" fill="none" xmlns="http://www.w3.org/2000/svg">
<path d="M9.16562 5.98721C7.62096 5.98721 6.36562 7.24254 6.36562 8.78721C6.36562 10.3319 7.62096 11.5872 9.16562 11.5872C10.7103 11.5872 11.9656 10.3319 11.9656 8.78721C11.9656 7.24254 10.7103 5.98721 9.16562 5.98721ZM9.63229 10.1872C9.63229 10.4439 9.42229 10.6539 9.16562 10.6539C8.90896 10.6539 8.69896 10.4439 8.69896 10.1872V9.25387C8.69896 8.99721 8.90896 8.78721 9.16562 8.78721C9.42229 8.78721 9.63229 8.99721 9.63229 9.25387V10.1872ZM9.16562 8.32054C8.77829 8.32054 8.46562 8.00787 8.46562 7.62054C8.46562 7.23321 8.77829 6.92054 9.16562 6.92054C9.55296 6.92054 9.86563 7.23321 9.86563 7.62054C9.86563 8.00787 9.55296 8.32054 9.16562 8.32054ZM5.93629 10.6539H3.09896C1.81096 10.6539 0.765625 9.60854 0.765625 8.32054V2.72054C0.765625 1.43254 1.81096 0.387207 3.09896 0.387207H5.43229V2.72054C5.43229 3.49054 6.06229 4.12054 6.83229 4.12054H9.16562V5.05387C7.10763 5.05387 5.43229 6.72921 5.43229 8.78721C5.43229 9.46854 5.61896 10.1032 5.93629 10.6539ZM6.36562 2.72054V0.457207C6.58029 0.527207 6.77629 0.639207 6.93962 0.797874L8.75962 2.63654C8.91362 2.79054 9.02096 2.97721 9.08629 3.18254H6.83229C6.57562 3.18254 6.36562 2.97254 6.36562 2.71587V2.72054Z" fill="#4E6199"/>
</svg>
